<?xml version="1.0" standalone="no"?>
<!DOCTYPE svg PUBLIC "-//W3C//DTD SVG 20010904//EN"
 "http://www.w3.org/TR/2001/REC-SVG-20010904/DTD/svg10.dtd">
<svg version="1.0" xmlns="http://www.w3.org/2000/svg"
 width="1751.000000pt" height="1778.000000pt" viewBox="0 0 1751.000000 1778.000000"
 preserveAspectRatio="xMidYMid meet" >

<g transform="translate(0.000000,1778.000000) scale(0.100000,-0.100000)"
fill="white" stroke="none">
<path d="M9126 17281 c-16 -18 -12 -29 100 -252 64 -129 186 -376 270 -549
l154 -315 -53 60 c-28 32 -64 73 -79 90 l-27 30 -1 -364 0 -363 -103 99 c-398
379 -880 591 -1441 633 -209 16 -476 -7 -667 -55 -74 -19 -212 -65 -222 -74
-4 -4 321 -124 722 -267 401 -142 728 -260 727 -261 -1 -1 -78 6 -172 16 -93
11 -170 18 -171 17 -1 -1 119 -113 267 -250 253 -233 291 -276 245 -276 -7 0
-55 9 -106 19 -238 49 -573 66 -779 40 -377 -46 -682 -174 -1019 -427 -136
-101 -360 -316 -436 -418 -76 -101 -147 -245 -114 -232 8 3 315 126 683 272
368 147 670 265 672 264 1 -2 -57 -46 -129 -98 -129 -93 -131 -95 -97 -98 19
-1 208 -11 419 -22 211 -11 385 -21 387 -23 2 -2 -20 -21 -49 -43 -83 -63
-274 -252 -342 -339 -78 -100 -131 -186 -194 -317 -65 -135 -116 -197 -258
-314 -65 -54 -202 -180 -304 -281 l-186 -183 -12 26 c-7 15 -16 77 -22 138
-10 123 -20 161 -56 224 l-24 42 86 303 c47 167 85 308 85 314 0 7 -10 15 -22
19 -19 6 -39 -11 -133 -107 -200 -206 -305 -404 -349 -659 -28 -166 -17 -415
28 -585 l14 -55 -86 6 c-96 7 -309 -9 -417 -32 -340 -71 -673 -292 -859 -572
-61 -92 -144 -258 -133 -268 2 -3 183 90 402 206 220 115 401 210 403 210 3 0
-19 -25 -48 -56 -29 -30 -51 -57 -49 -59 2 -2 108 3 234 11 127 7 245 13 263
14 l34 0 -51 -62 c-250 -306 -355 -580 -354 -928 0 -172 17 -291 60 -421 23
-72 78 -168 89 -157 2 3 45 186 94 409 50 222 92 409 94 414 2 6 7 -28 12 -75
l9 -85 29 45 c16 25 72 104 125 175 128 171 157 221 191 324 l29 86 0 -62 c1
-35 4 -63 9 -63 4 0 69 45 145 99 160 115 183 126 234 116 50 -9 138 -99 277
-285 301 -403 516 -845 630 -1295 62 -245 106 -569 106 -778 0 -101 -3 -118
-26 -164 -30 -62 -79 -96 -212 -147 -276 -106 -440 -233 -537 -417 -38 -73
-39 -73 -190 -126 -213 -74 -448 -207 -655 -373 -152 -121 -1088 -1067 -1454
-1469 -74 -82 -346 -427 -346 -440 0 -22 101 -45 360 -81 535 -74 739 -87
1085 -71 127 6 385 18 575 26 654 29 1023 67 1980 205 665 96 852 107 1150 64
165 -24 256 -49 1205 -334 486 -146 547 -161 715 -181 127 -14 358 -7 485 15
135 24 301 73 383 112 57 27 76 43 89 69 15 31 15 37 0 77 -22 57 -61 107
-310 397 -957 1114 -1372 1525 -1814 1793 -108 65 -166 95 -366 186 -61 28
-69 35 -87 79 -49 117 -85 162 -227 280 -154 128 -163 147 -163 325 0 619 254
1235 703 1701 95 99 110 100 220 23 43 -29 95 -61 118 -71 36 -16 50 -35 126
-164 48 -80 97 -164 111 -185 l25 -40 16 33 17 32 47 -263 c26 -145 47 -266
47 -270 0 -5 4 -8 9 -8 14 0 80 166 102 255 23 99 25 266 4 370 -27 129 -81
255 -169 390 l-45 70 189 3 190 2 224 -131 c124 -72 230 -128 236 -124 5 3 10
16 10 29 0 38 -110 203 -199 298 -180 191 -408 297 -705 327 -60 6 -110 12
-112 14 -1 1 4 34 12 72 21 100 30 245 22 354 -9 107 -47 230 -99 318 -45 75
-193 232 -197 209 -2 -9 11 -84 28 -167 41 -193 39 -256 -14 -431 l-39 -128
-40 48 c-271 318 -626 500 -881 452 -36 -7 -66 -15 -66 -19 0 -18 202 -167
280 -206 98 -49 127 -79 167 -168 15 -34 42 -91 60 -126 l33 -63 -25 6 c-70
18 -186 36 -296 47 -362 35 -666 -57 -790 -238 -17 -24 -29 -46 -26 -49 4 -4
432 48 515 63 28 5 33 3 30 -11 -2 -14 26 -30 130 -74 72 -31 132 -59 132 -63
0 -3 -45 -43 -101 -89 -195 -161 -293 -297 -306 -423 -3 -31 -3 -57 1 -57 4 0
33 22 64 48 120 103 275 185 418 221 94 24 318 47 358 37 26 -6 26 -7 -47 -89
-207 -233 -385 -499 -502 -751 -130 -281 -228 -626 -265 -931 -19 -163 -17
-156 -48 -144 -15 6 -61 17 -102 26 -106 22 -148 45 -170 96 -40 92 -138 529
-174 782 -65 452 -73 976 -20 1420 20 168 58 401 90 540 44 195 76 232 190
220 58 -6 64 -5 64 12 -1 23 -17 43 -59 72 -18 13 -42 44 -53 68 -16 37 -18
52 -9 91 5 26 89 214 187 417 97 204 230 485 296 625 143 304 160 335 201 361
51 30 91 24 217 -34 63 -30 190 -89 283 -132 92 -43 170 -75 173 -72 3 3 -2
57 -11 121 -9 64 -13 121 -10 126 14 22 22 6 34 -65 8 -51 27 -105 58 -166 43
-87 58 -104 331 -384 158 -161 288 -292 288 -291 1 0 -7 60 -17 131 -10 72
-18 139 -18 150 0 11 114 -263 252 -610 172 -428 258 -631 269 -633 30 -6 45
26 61 130 42 259 49 514 22 720 -71 537 -346 1005 -816 1390 -73 59 -96 84
-83 85 10 2 208 19 439 38 230 20 421 37 422 39 2 2 -62 44 -142 95 -80 51
-145 94 -145 96 0 2 19 -3 43 -11 23 -8 337 -117 697 -241 360 -124 660 -227
666 -230 6 -2 16 7 22 21 10 23 6 32 -56 108 -162 201 -388 409 -588 544 -187
125 -459 243 -674 293 -328 76 -701 76 -1077 -1 -57 -11 -105 -19 -107 -17 -2
2 0 31 5 64 14 108 10 420 -6 534 -86 585 -440 1095 -977 1404 -55 32 -51 32
-72 8z m-255 -3187 c-6 -21 -9 -40 -6 -42 2 -2 56 6 120 18 64 12 119 20 124
18 7 -3 -155 -339 -490 -1019 l-111 -226 -81 23 c-284 83 -608 69 -909 -39
-81 -29 -98 -32 -102 -20 -4 9 46 87 131 204 76 104 139 193 141 198 2 5 -11
12 -27 16 -17 4 -31 10 -31 13 0 4 169 106 376 227 l375 220 -38 12 c-21 6
-57 17 -80 23 -24 6 -43 14 -43 18 0 13 91 78 150 107 30 15 114 52 185 82
141 58 248 124 290 179 32 42 40 39 26 -12z m-451 -1578 c0 -8 -112 -441 -126
-488 -4 -13 -54 25 -219 165 -170 144 -211 184 -197 189 9 4 116 30 237 58
120 28 221 52 223 54 2 2 -24 21 -57 41 -33 21 -58 41 -56 45 7 11 195 -51
195 -64z m-924 -507 c32 -5 134 -35 226 -65 91 -30 173 -54 182 -54 20 0 20 7
1 59 l-15 42 30 -25 c128 -108 290 -262 300 -287 11 -24 5 -115 -35 -542 -26
-281 -50 -539 -53 -571 l-7 -59 -58 149 c-176 448 -438 888 -740 1242 -43 51
-76 96 -73 99 20 21 156 28 242 12z m2234 -3394 c0 -14 -3 -25 -8 -25 -4 0
-86 -13 -182 -29 -787 -133 -1613 -114 -2296 53 l-99 24 1293 1 1292 1 0 -25z"/>
<path d="M8955 5965 c-49 -7 -178 -29 -285 -48 -866 -157 -1878 -238 -2985
-238 -574 -1 -683 7 -1270 95 -88 13 -161 23 -162 22 -7 -6 -24 -253 -32 -452
-22 -538 34 -1072 160 -1529 157 -566 411 -1054 924 -1775 282 -396 489 -608
794 -812 341 -228 732 -369 1211 -438 642 -91 1289 -106 1920 -44 667 65 1080
181 1467 411 397 236 828 702 1180 1278 183 298 430 769 518 984 157 387 251
821 285 1319 16 245 13 680 -6 784 l-16 86 -71 -24 c-121 -42 -335 -93 -482
-116 -182 -28 -550 -31 -718 -5 -242 37 -554 121 -1067 288 -506 164 -580 184
-810 215 -129 17 -432 17 -555 -1z"/>
<path d="M16215 15 c-37 -12 -32 -13 85 -13 117 0 122 1 85 13 -22 8 -60 13
-85 13 -25 0 -63 -5 -85 -13z"/>
</g>
</svg>
