<?xml version="1.0" standalone="no"?>
<!DOCTYPE svg PUBLIC "-//W3C//DTD SVG 20010904//EN"
 "http://www.w3.org/TR/2001/REC-SVG-20010904/DTD/svg10.dtd">
<svg version="1.0" xmlns="http://www.w3.org/2000/svg"
 width="1024.000000pt" height="743.000000pt" viewBox="0 0 1024.000000 743.000000"
 preserveAspectRatio="xMidYMid meet">

<g transform="translate(0.000000,743.000000) scale(0.100000,-0.100000)"
fill="#ebf5fa" stroke="none">
<path d="M3370 6913 c0 -5 18 -42 39 -85 21 -42 32 -74 25 -71 -10 4 -11 -8
-7 -51 3 -31 2 -56 -2 -56 -4 0 -23 14 -43 31 -48 42 -124 77 -189 85 -54 6
-169 -3 -159 -13 10 -10 139 -60 173 -67 18 -4 36 -12 39 -18 4 -6 -2 -8 -17
-3 -23 6 -22 5 6 -22 63 -60 64 -59 -43 -58 -84 0 -104 -3 -153 -26 -52 -25
-169 -123 -158 -133 5 -5 104 28 173 57 48 21 56 21 30 2 -17 -13 -14 -14 38
-15 31 0 59 -4 62 -9 3 -5 -9 -24 -28 -44 -18 -19 -40 -50 -49 -69 -14 -29
-116 -128 -131 -128 -3 0 -6 11 -6 24 0 14 -4 27 -9 30 -5 4 -3 26 5 53 8 25
14 51 14 56 0 20 -31 -17 -56 -69 -20 -42 -25 -65 -22 -106 l3 -52 -50 -4
c-64 -5 -114 -31 -159 -83 -20 -24 -34 -44 -32 -46 2 -2 25 8 51 22 32 17 64
25 96 25 27 0 49 -1 49 -2 0 -2 -14 -30 -30 -62 -30 -59 -37 -112 -20 -166 l7
-25 12 28 c6 16 11 39 11 53 0 14 6 27 13 30 7 2 23 21 36 42 24 39 91 79 111
67 17 -10 93 -132 113 -180 22 -53 35 -107 43 -182 l6 -61 -51 -26 c-28 -14
-60 -39 -72 -55 -12 -16 -33 -32 -47 -36 -46 -11 -128 -74 -220 -168 -132
-135 -184 -199 -172 -211 27 -27 474 -15 615 16 27 6 97 12 155 12 97 1 116
-2 242 -41 81 -26 156 -43 185 -43 62 0 123 17 123 35 0 20 -145 189 -237 276
-45 41 -106 89 -137 105 -31 16 -56 34 -56 41 0 7 -13 22 -30 35 -27 20 -30
27 -30 78 0 31 9 83 20 116 22 66 86 157 114 162 28 6 92 -71 101 -121 l8 -42
10 43 c9 37 7 52 -11 93 l-20 49 29 0 c17 0 44 -7 60 -16 40 -20 45 -14 17 21
-24 31 -74 55 -113 55 -24 0 -25 2 -19 34 7 38 -9 98 -30 115 -11 9 -13 3 -9
-31 2 -24 0 -49 -6 -57 -8 -12 -15 -9 -42 17 -30 29 -104 60 -116 49 -3 -4 36
-35 63 -51 1 -1 5 -11 9 -24 6 -21 5 -22 -34 -16 -51 8 -99 -1 -130 -25 l-25
-19 46 5 c26 3 55 0 67 -6 l22 -12 -31 -35 c-39 -45 -38 -61 3 -36 34 21 91
35 100 25 4 -3 -9 -24 -28 -48 -41 -50 -72 -117 -95 -205 -14 -54 -20 -64 -36
-62 -27 5 -31 15 -48 112 -30 161 -15 384 27 399 14 5 17 10 9 15 -7 4 -12 16
-12 26 0 27 109 240 123 240 7 0 32 -9 56 -21 32 -14 46 -16 52 -8 4 8 9 5 13
-8 3 -10 26 -39 51 -63 37 -36 45 -41 46 -25 0 11 13 -11 28 -50 16 -38 35
-86 44 -105 l15 -35 7 28 c13 49 -1 152 -27 208 -14 30 -44 73 -68 97 -51 50
-45 62 33 62 51 0 57 5 30 26 -10 7 7 4 37 -7 72 -28 161 -51 168 -44 10 10
-82 86 -137 113 -50 24 -67 27 -162 27 l-107 0 5 31 c7 44 -22 149 -56 198
-37 53 -112 113 -111 89z m-27 -517 c9 3 17 4 17 0 0 -3 -20 -46 -45 -95 -25
-49 -45 -94 -45 -100 0 -6 -25 -8 -68 -4 -45 4 -76 1 -91 -7 -33 -17 -38 -4
-13 30 12 16 22 33 22 37 0 4 25 21 56 37 33 18 51 32 44 36 -13 8 25 40 47
40 7 0 21 9 30 20 10 11 20 15 23 9 4 -5 14 -7 23 -3z m-108 -293 c-9 -53 -16
-56 -53 -22 -33 29 -33 29 -10 38 13 4 30 11 38 14 29 11 32 7 25 -30z m-74
-73 c9 0 23 -8 32 -18 13 -14 15 -34 10 -116 l-6 -99 -38 76 c-21 42 -54 98
-74 123 -40 54 -34 68 23 48 20 -7 44 -13 53 -14z m275 -552 c21 -21 -320 -21
-391 0 -20 6 41 9 177 7 114 0 210 -4 214 -7z"/>
<path d="M7387 6755 c-226 -86 -418 -466 -542 -1070 -65 -316 -115 -737 -115
-961 0 -94 -1 -97 -47 -191 -82 -162 -175 -259 -228 -235 -53 25 -57 204 -10
469 47 257 59 381 47 452 -6 36 -19 76 -30 90 -28 39 -84 63 -127 55 -45 -8
-65 -28 -65 -64 0 -42 -45 -262 -75 -365 -36 -124 -92 -239 -182 -375 -165
-248 -328 -358 -390 -263 -37 57 -14 246 51 417 108 284 279 529 452 649 55
37 144 67 201 67 51 0 138 -34 162 -63 33 -41 61 5 61 98 0 139 -161 222 -361
185 -119 -22 -304 -141 -431 -279 -180 -194 -340 -478 -382 -677 -24 -114 -39
-284 -32 -364 8 -87 37 -161 77 -194 43 -36 124 -52 196 -37 176 34 332 180
494 459 l54 93 7 -113 c13 -215 43 -320 108 -387 51 -53 102 -68 167 -51 69
19 171 125 242 253 29 53 57 97 61 97 4 0 11 -17 15 -37 28 -148 104 -274 190
-314 137 -63 292 44 458 317 30 49 58 89 64 91 6 2 16 -17 22 -43 36 -141 144
-291 243 -335 166 -74 434 27 629 238 157 170 305 412 400 656 21 55 38 102
36 103 -1 1 -15 4 -32 6 -28 3 -32 -2 -88 -107 -167 -315 -377 -579 -524 -658
-141 -75 -279 -29 -353 118 -35 70 -35 71 -35 205 0 195 -6 185 112 186 79 2
111 7 166 28 201 76 335 243 382 475 39 191 -13 328 -142 372 -49 17 -163 16
-233 0 -216 -52 -414 -273 -515 -575 -49 -148 -85 -350 -85 -478 0 -65 -34
-141 -116 -255 -81 -114 -193 -163 -256 -114 -38 30 -74 112 -94 211 -22 106
-24 334 -5 447 11 70 17 85 39 99 228 150 515 696 619 1178 12 55 18 125 18
221 0 129 -2 144 -25 189 -35 71 -66 90 -148 93 -41 2 -82 -3 -105 -12z m160
-182 c15 -22 18 -47 16 -133 -5 -339 -249 -936 -485 -1185 -72 -75 -71 -77
-17 190 120 594 269 1036 380 1129 41 35 83 34 106 -1z m762 -1009 c47 -60 14
-236 -65 -352 -72 -104 -188 -181 -311 -207 -88 -19 -122 -19 -129 0 -9 23 62
229 108 315 98 185 199 270 319 270 50 0 60 -3 78 -26z"/>
<path d="M1385 6523 c-280 -34 -410 -62 -546 -114 -95 -37 -149 -87 -193 -179
-28 -59 -31 -73 -31 -165 1 -109 24 -190 70 -243 l24 -27 20 20 c14 14 28 53
42 120 41 196 103 279 230 310 l26 7 8 -829 c4 -455 10 -933 14 -1061 l6 -234
81 -33 c98 -41 168 -52 219 -35 66 22 65 14 65 620 0 395 3 539 11 534 6 -3
77 -106 156 -227 351 -532 533 -760 690 -863 46 -30 59 -34 120 -34 127 0 250
51 350 144 l59 54 43 -28 c104 -71 238 -96 461 -87 259 10 363 65 495 262 102
155 145 284 145 442 l0 93 -42 -7 c-101 -18 -197 -8 -337 35 -153 48 -176 49
-356 22 -162 -25 -492 -37 -590 -22 -38 6 -71 9 -75 6 -13 -14 0 -233 19 -305
19 -75 65 -177 102 -231 28 -39 24 -54 -25 -87 -54 -37 -122 -56 -156 -43 -89
34 -254 245 -516 657 -199 313 -207 326 -198 335 5 4 61 31 124 60 261 116
433 248 498 380 24 49 27 66 26 155 -1 116 -21 180 -89 285 -51 77 -85 111
-184 179 -155 106 -298 142 -558 140 -98 -1 -191 -4 -208 -6z m310 -254 c220
-27 377 -106 426 -214 25 -55 25 -156 -1 -213 -58 -128 -280 -259 -552 -326
-157 -38 -144 -46 -151 87 -9 155 -9 672 1 681 8 9 151 1 277 -15z"/>
<path d="M5083 5868 c-52 -11 -58 -23 -67 -114 -34 -384 -193 -893 -360 -1148
-100 -154 -241 -269 -301 -246 -67 26 -88 189 -47 361 12 48 53 172 93 275 96
253 120 345 122 464 1 76 -3 104 -20 140 -42 93 -109 116 -228 79 l-31 -9 4
-98 c5 -122 -17 -215 -119 -501 -38 -108 -86 -261 -106 -341 -34 -133 -37
-157 -38 -290 0 -170 13 -218 75 -274 45 -41 85 -50 179 -44 104 8 192 58 312
177 55 55 120 134 153 185 73 111 165 299 211 431 l36 100 -5 -100 c-12 -240
-120 -673 -246 -992 l-33 -83 -88 0 c-404 0 -772 -180 -912 -448 -63 -119 -82
-200 -82 -342 0 -109 3 -130 22 -165 26 -48 85 -106 133 -131 51 -26 205 -31
289 -9 252 65 526 316 717 657 30 54 57 98 59 98 2 0 41 -14 87 -31 266 -99
407 -132 573 -133 117 0 138 2 209 27 157 55 262 142 323 265 38 76 38 77 38
201 0 70 -3 133 -7 142 -5 14 -15 8 -57 -30 -130 -120 -313 -190 -497 -191
-126 0 -329 19 -439 41 -55 11 -101 21 -102 23 -1 1 23 74 53 162 319 918 432
1707 266 1857 -22 20 -87 47 -112 45 -8 0 -34 -4 -57 -10z m-540 -2285 c14 -8
6 -35 -38 -123 -134 -267 -318 -479 -494 -571 -59 -31 -72 -34 -152 -34 -82 0
-89 2 -126 31 -21 16 -48 50 -61 75 -44 83 -14 236 68 352 98 136 321 247 555
276 65 8 230 4 248 -6z"/>
<path d="M1316 2999 c-98 -13 -222 -58 -312 -114 -210 -131 -413 -419 -500
-709 -44 -147 -58 -249 -57 -426 3 -611 262 -995 731 -1086 109 -21 310 -18
402 6 163 42 340 160 459 306 35 44 68 89 74 102 6 12 14 22 19 22 10 0 10 -1
32 -102 35 -155 122 -284 223 -330 36 -16 69 -22 128 -22 73 -1 87 3 159 37
187 89 360 341 476 696 26 80 56 189 66 241 17 94 18 96 73 150 31 30 78 89
105 130 97 147 214 430 178 430 -14 0 -52 -31 -52 -43 0 -19 -103 -226 -144
-291 -40 -61 -103 -136 -116 -136 -4 0 -10 51 -13 113 -11 191 -56 324 -144
418 -56 60 -115 84 -203 83 -74 -1 -127 -23 -174 -73 -17 -17 -38 -31 -49 -31
-11 0 -48 -14 -84 -31 -196 -94 -350 -378 -424 -784 -17 -98 -29 -132 -60
-186 -129 -223 -327 -418 -491 -486 -53 -22 -78 -26 -158 -26 -302 2 -532 203
-634 555 -58 199 -74 493 -35 649 75 302 337 596 569 639 133 25 232 -45 284
-202 20 -60 39 -259 31 -320 l-7 -51 48 6 c114 13 221 74 262 149 84 155 -76
475 -318 633 -117 76 -215 100 -344 84z m1673 -645 c65 -26 108 -108 131 -254
11 -72 12 -231 1 -270 -7 -24 -10 -25 -87 -24 -97 0 -141 20 -207 94 -75 84
-108 210 -73 278 20 38 66 69 123 83 26 7 49 13 51 15 2 1 -4 17 -13 35 -16
31 -16 33 1 46 23 16 25 16 73 -3z m-355 -466 c40 -87 123 -168 201 -197 52
-20 74 -22 168 -19 59 3 107 3 107 2 0 -17 -45 -189 -66 -250 -104 -312 -237
-534 -354 -594 -131 -67 -242 46 -280 282 -16 101 -3 229 46 437 31 129 128
401 143 401 4 0 20 -28 35 -62z"/>
<path d="M8668 3003 c-32 -5 -33 -8 -13 -56 16 -38 19 -94 9 -146 l-6 -31
-162 0 c-179 0 -269 -15 -353 -56 -98 -48 -153 -142 -153 -262 l0 -55 43 39
c103 95 198 124 424 127 83 1 154 -1 158 -5 10 -10 -71 -421 -172 -873 -70
-317 -103 -474 -103 -499 0 -33 -82 -196 -120 -240 -40 -45 -85 -69 -115 -62
-38 10 -55 62 -55 173 0 125 24 239 90 423 101 282 114 330 131 457 15 117 1
190 -46 241 -29 32 -38 36 -94 40 -41 3 -85 -1 -127 -13 -35 -9 -64 -18 -64
-19 0 0 7 -23 15 -50 33 -108 10 -247 -76 -481 -64 -171 -172 -396 -252 -524
-139 -223 -288 -346 -361 -297 -41 26 -52 82 -38 190 15 118 36 186 133 429
104 260 122 326 123 452 1 112 -15 160 -62 192 -38 25 -140 22 -215 -6 -54
-21 -57 -24 -50 -49 13 -46 6 -233 -11 -307 -75 -322 -235 -646 -400 -810 -94
-93 -173 -119 -229 -75 -38 30 -51 81 -44 169 8 96 31 179 114 405 110 303
136 411 137 566 1 97 -1 109 -27 155 -70 126 -213 140 -374 36 -144 -93 -270
-225 -395 -411 -39 -58 -68 -96 -65 -85 11 35 37 254 37 310 0 131 -49 221
-135 246 -44 13 -45 13 -39 51 4 21 3 38 -2 38 -17 -1 -43 -27 -53 -53 -6 -15
-18 -27 -26 -27 -9 0 -29 -7 -46 -15 -29 -16 -29 -16 -23 -85 l7 -69 -67 -100
c-58 -88 -89 -121 -110 -121 -3 0 -6 38 -6 84 0 227 -82 427 -203 496 -100 57
-233 46 -305 -26 -21 -21 -58 -43 -94 -55 -110 -37 -194 -107 -270 -224 -111
-170 -197 -448 -228 -735 -14 -123 -21 -137 -134 -257 -152 -161 -303 -254
-419 -257 -83 -1 -126 25 -158 97 -41 93 -29 310 28 492 51 163 125 277 234
361 172 132 329 122 329 -21 0 -30 -8 -43 -51 -84 l-51 -49 30 -16 c43 -22 52
-21 95 15 149 123 119 327 -57 394 -65 25 -200 17 -281 -16 -174 -71 -329
-230 -441 -451 -120 -237 -159 -455 -118 -654 54 -263 228 -376 450 -293 125
47 295 188 445 369 82 100 98 109 99 54 0 -39 40 -179 67 -234 31 -65 110
-152 158 -174 92 -44 225 -39 319 12 69 38 159 123 228 217 120 163 242 454
293 701 23 111 26 118 64 150 22 19 64 67 93 107 47 65 53 69 57 47 5 -37 -15
-165 -69 -435 -66 -330 -73 -380 -74 -540 -1 -130 1 -143 24 -190 33 -66 83
-95 163 -95 48 0 62 4 82 24 l24 24 -21 53 c-18 44 -22 76 -22 169 0 107 2
123 38 229 104 312 284 627 456 802 91 92 144 126 214 135 40 6 46 4 61 -20
15 -23 17 -42 12 -119 -7 -108 -32 -201 -122 -441 -114 -306 -145 -474 -110
-606 56 -216 229 -311 406 -222 86 43 187 141 252 245 24 37 37 26 37 -33 0
-136 112 -260 235 -260 139 0 334 156 494 397 l68 102 6 -117 c9 -194 54 -293
153 -339 130 -59 276 7 385 173 44 68 59 70 59 8 0 -82 60 -172 129 -196 55
-19 177 -14 237 9 189 74 353 292 507 673 99 246 111 296 84 334 -11 15 -24
-6 -109 -176 -165 -329 -329 -550 -440 -593 -95 -36 -128 1 -128 142 1 207 64
514 235 1142 35 130 69 260 76 290 l11 54 102 -7 c273 -18 312 -18 414 -7 282
32 401 112 402 270 0 53 -17 131 -29 131 -4 0 -14 -13 -24 -29 -25 -43 -101
-86 -202 -117 -80 -24 -111 -27 -282 -32 -106 -2 -227 -1 -268 3 l-75 7 0 66
c0 83 -27 136 -85 169 -33 18 -54 22 -115 21 -41 0 -87 -3 -102 -5z m-3495
-665 c63 -45 97 -158 104 -349 7 -185 5 -189 -83 -189 -150 0 -281 123 -300
281 -5 48 -3 63 16 97 25 44 74 76 133 87 35 7 49 27 27 40 -14 9 -12 52 3 58
20 8 70 -5 100 -25z m-383 -454 c43 -89 121 -166 197 -194 50 -19 72 -21 166
-18 l108 5 -7 -41 c-19 -120 -100 -347 -180 -509 -141 -287 -287 -383 -407
-269 -16 15 -39 47 -51 72 -42 83 -51 137 -50 290 0 121 5 165 28 265 39 169
139 465 157 465 3 0 21 -30 39 -66z"/>
</g>
</svg>
